# xmcd
#
# Track frame offsets: 
#        150
#        11007
#        22659
#        38691
#        49583
#        59597
#        72433
#        85062
#
# Disc length: 1307 seconds
#
# Revision: 0
# Processed by: cddbd v1.5.2PL0 Copyright (c) Steve Scherf et al.
# Submitted via: ExactAudioCopy v0.99pb4
#
DISCID=5b051908
DTITLE=Marty Robbins - Where There's Love, There's Marty Robbins
DYEAR=1988
DGENRE=Classic Country
TTITLE0=I've Got a Woman's Love
TTITLE1=Among my Souvenirs
TTITLE2=My Woman, My Woman, My Wife
TTITLE3=I Don't Know Why (I Just Do)
TTITLE4=Love Is In the Air
TTITLE5=Don't Let Me Touch You
TTITLE6=Early Morning Sunshine
TTITLE7=Without You to Love
EXTD=
EXTT0=
EXTT1=
EXTT2=
EXTT3=
EXTT4=
EXTT5=
EXTT6=
EXTT7=
PLAYORDER=
